<?xml version="1.0" encoding="UTF-8"?><svg id="Layer_1" xmlns="http://www.w3.org/2000/svg" viewBox="0 0 41.5729 54.05273"><defs><style>.cls-1{fill:#f9a935;}.cls-2{fill:#d3000b;}</style></defs><g><path class="cls-1" d="M20.78645,52.92598c10.76175-5.58473,15.75632-16.20048,18.02017-25.96151l-18.14978-.00041,.12961,25.96192"/><path class="cls-2" d="M20.78645,52.92598C10.0247,47.34125,5.03013,36.7255,2.76628,26.96447l17.89056-.00042,.12961,25.96192Z"/><path class="cls-2" d="M20.78645,1.00214s10.30665,.62559,19.61433,4.62935c0,0,1.01094,10.10058-1.59416,21.33298l-18.14978-.00041,.12961-25.96192Z"/><path class="cls-1" d="M20.78645,1.00214l-.12961,25.96192-17.89056,.00042C.16118,15.73207,1.17212,5.63149,1.17212,5.63149,10.4798,1.62772,20.78645,1.00214,20.78645,1.00214"/></g><path d="M20.78621,54.05273l-.46045-.23926C-3.15031,41.63086,.1407,5.89111,.17683,5.53174l.05859-.58643,.5415-.23242C10.13728,.68652,20.29744,.02979,20.72566,.00391l.06055-.00391,.06055,.00391c.42822,.02588,10.58936,.68262,19.94971,4.70898l.54102,.23242,.05859,.58643c.03613,.35938,3.32715,36.09912-20.14941,48.28174l-.46045,.23926ZM2.12166,6.31592c-.30957,4.57178-1.51709,34.54639,18.66455,45.47803C40.96834,40.8623,39.76033,10.8877,39.45174,6.31592,30.93221,2.79102,21.62703,2.06348,20.78621,2.00439c-.84082,.05908-10.14502,.78662-18.66455,4.31152Z"/><path d="M33.10774,23.67178c-.4682-1.67247-.78043-3.21115-.20062-4.97277,.64664-2.05153-.5353-3.47873-2.6983-4.12551-.98119-.28977-2.07385-.04451-2.92124-.71347-1.91773-1.47185-4.10319-1.78408-6.44462-1.51649-1.51636,.15611-3.16651-.4682-4.57139,.46834-1.53868,1.04815-3.23347,1.44953-4.97277,1.85091-1.9847,.44602-3.16664,2.05153-2.54219,3.96926,.55749,1.78408,.35673,3.34494-.20076,4.99509-.31209,.959-.44588,1.96238-.7136,2.94356-.37906,1.22659-.08915,2.2746,.6691,3.27811,2.69817,3.5902,6.08775,6.24386,10.25776,7.96098,1.47171,.602,2.85441,.55749,4.30381-.04464,2.92124-1.24877,5.50807-2.96589,7.73803-5.19585,3.47873-3.47873,3.65703-4.08073,2.29679-8.89752Zm-21.98738-4.37064c-.95887-.64678-.98119-1.561-.55749-2.38607,.51285-.95887,1.49404-.86972,2.51987-.69128-.66896,1.07034-1.29342,2.0292-1.96238,3.07736Zm6.51145,14.42778c2.16313-1.38256,4.21466-1.40489,6.26618-.06696-1.94005,2.22996-3.67935,2.29692-6.26618,.06696Zm9.72259-8.60761c-.35673,.8474-.20062,1.89541-1.07034,2.76513-.73593-1.15962-1.40489-2.22996-1.76162-3.36726,0-1.00351,1.22645-1.09266,1.24877-2.09617-.82507-.37906-1.65015-.33441-2.2746,.35687-.55749,.64664-.37906,1.47171-.06683,2.22996,.53517,1.20413,1.11498,2.40826,1.65015,3.63471,.4682,1.07047,1.00351,2.22996-.04464,3.25579-.57981,.57981-2.22996,.13379-3.41177-.82507-.08929-.08915-.11161-.26758-.17843-.4237,.06683-.4237,.37906-.66896,.7136-.8474,.35673-.20062,.7136-.35673,1.15949-1.24877-1.78394,.28991-3.21115,.24526-4.79433,.06696,.26758,1.15949,1.40489,1.09266,1.67247,1.91773,.04451,.7136-.57981,.93655-1.1373,1.20413-.80275,.4237-1.73943,.66896-2.4529,.11147-.8474-.66896-.64678-1.69466-.26772-2.60902,.31223-.78043,.7136-1.561,1.07047-2.34143,.26758-.55749,.53517-1.1373,.73593-1.71711,.82507-2.22996,.28977-2.92124-2.18545-2.80977-.20062,.46834,.15611,.69128,.40138,.959,.26758,.28977,.6691,.4237,.78057,1.11498-.20076,1.11498-1.07047,2.14067-1.67247,3.36713-2.2746-3.38945-1.91787-6.6006,.95887-9.14278,1.38256-1.22645,1.71711-1.27109,3.3003-.40138,.35687,.17843,.66896,.4237,.93655,.60213,.22308-.04464,.40151-.02232,.51298-.11161,2.38607-1.53868,2.56437-1.62783,4.72751,.60213,1.58318,1.60564,2.36375,3.52338,1.44939,5.75334Zm3.30043-5.70869c-.7136-1.09266-1.36024-2.05166-2.11849-3.21115,2.8766,.06683,3.25579,.62432,2.11849,3.21115Z"/></svg>