<?xml version="1.0" encoding="UTF-8"?><svg id="Layer_1" xmlns="http://www.w3.org/2000/svg" viewBox="0 0 41.5729 54.05273"><defs><style>.cls-1{fill:#e27e05;}.cls-2{fill:#f2d319;}</style></defs><g><g><path class="cls-1" d="M20.78645,52.92598c10.76175-5.58473,15.75632-16.20048,18.02017-25.96151l-18.14978-.00041,.12961,25.96192"/><path class="cls-2" d="M20.78645,52.92598C10.0247,47.34125,5.03013,36.7255,2.76628,26.96447l17.89056-.00042,.12961,25.96192Z"/><path class="cls-2" d="M20.78645,1.00214s10.30665,.62559,19.61433,4.62935c0,0,1.01094,10.10058-1.59416,21.33298l-18.14978-.00041,.12961-25.96192Z"/><path class="cls-1" d="M20.78645,1.00214l-.12961,25.96192-17.89056,.00042C.16118,15.73207,1.17212,5.63149,1.17212,5.63149,10.4798,1.62772,20.78645,1.00214,20.78645,1.00214"/></g><path d="M20.78621,54.05273l-.46045-.23926C-3.15031,41.63086,.1407,5.89111,.17683,5.53174l.05859-.58643,.5415-.23242C10.13728,.68652,20.29744,.02979,20.72566,.00391l.06055-.00391,.06055,.00391c.42822,.02588,10.58936,.68262,19.94971,4.70898l.54102,.23242,.05859,.58643c.03613,.35938,3.32715,36.09912-20.14941,48.28174l-.46045,.23926ZM2.12166,6.31592c-.30957,4.57178-1.51709,34.54639,18.66455,45.47803C40.96834,40.8623,39.76033,10.8877,39.45174,6.31592,30.93221,2.79102,21.62703,2.06348,20.78621,2.00439c-.84082,.05908-10.14502,.78662-18.66455,4.31152Z"/></g><path d="M32.734,24.17136c-1.17304-2.27709-2.43811-4.51965-2.30004-7.22217,.02295-.32204-.20707-.66703-.35657-.989-.73596-1.56401-1.51797-1.88605-2.92103-.88554-1.20751,.851-2.44955,1.127-3.86406,1.03505-1.02354-.069-2.05851-.03453-3.08205-.01151-2.11607,.03446-4.24358,.21851-6.06064-1.32255-.7015-.60948-1.47199-.25297-1.95505,.43701-.34499,.50601-.78201,1.127-.75898,1.67906,.09202,2.74857-1.23053,5.01408-2.38055,7.33715-.09202,.19548-.11497,.43701-.21851,.6325-.31053,.64401-.16102,1.15002,.31053,1.67906,2.89801,3.23156,5.37058,6.77358,7.69365,10.4192,1.03498,1.6215,2.34602,2.17349,4.05954,2.10449,1.74806,.04605,3.03607-.45997,4.03659-2.047,2.20802-3.49611,4.56555-6.92315,7.34866-10.0052,.851-.94303,1.01202-1.77101,.44853-2.84052Zm-20.40145-6.23317c.05756-.86252,.16102-1.96649,.95454-2.19651,.88554-.26455,1.63301,.68999,2.36904,1.21902,.44853,.33348,.17253,.89698,0,1.35702-.18397,.46004-.58652,.58652-.97749,.41399-.83956-.3565-1.55257-.26448-2.34609,.7705,0-.78201-.02295-1.17297,0-1.56401Zm3.65706,11.01723c.36802,1.57552,.77057,3.16256,.20707,5.0371-.98907-1.36853-1.85159-2.58755-2.74857-3.77211-.81654-1.10398-1.56401-2.28853-2.55309-3.23156-1.15002-1.09246-1.16146-2.13902-.41399-3.38107,.44853-.74747,.60955-2.01254,1.43753-2.07003,.7015-.04598,1.15002,1.10405,1.59855,1.80554,.4255,.66703,.80503,1.38004,1.17304,2.09305,.24146,.48299,.29895,.96598,1.16146,.89698,.75905-.05749,1.10405,.71308,.43701,1.26507-.5635,.45997-.4255,.82798-.29902,1.35702Zm4.91062,9.09664c-.5635-.22995-1.52955,.28751-1.56401-.74747-.02302-1.058,.95454-.851,1.58704-.87403,.60948-.01151,1.50653-.12649,1.5525,.78201,.069,1.20751-1.02354,.57501-1.57552,.83949Zm2.9211-1.265c-.72452-1.40299-1.96656-1.47206-3.16256-1.40299-.96605,.04598-2.09305,.069-2.57611,1.42602-.37946-.5635-.67847-1.01202-.989-1.43753-.21851-.32204-.33348-.58652-.01151-.94303,1.81705-2.08154,2.07003-4.65757,2.19658-7.24512,.138-3.07061-.11504-6.12964-.97756-9.10822-.18397-.6325-.17246-.96598,.65552-.93151,1.55257,.05749,3.10507,.02302,4.76111,.02302-.74754,2.69108-1.18456,5.3131-1.18456,7.99267,0,3.28905,.02302,6.55514,2.23105,9.38415,.60955,.79352-.67847,1.35702-.94296,2.24256Zm2.44948-19.91839c.03453-.02302,.069-.05749,.10353-.069,.78201-.33348,1.50653-1.51804,2.25407-.989,1.02347,.72452,.95447,2.116,.851,3.48453-.73603-.64401-1.43753-1.00051-2.33458-.57501-.47148,.23002-.89698-.01144-1.03498-.51745-.12656-.44853-.37953-.95454,.16095-1.33406Zm4.12861,10.69519c-1.59855,2.05858-3.12803,4.15163-4.81859,6.41714-.4945-1.88605-.138-3.45007,.23002-5.00257,.12649-.51752,.40248-1.00051-.28751-1.34558-.28751-.14951-.40255-.48299-.26448-.81647,.14944-.3565,.43694-.64401,.81647-.51752,.73603,.23002,.79352-.31053,.989-.72452,.63257-1.32255,1.36853-2.58755,2.31156-3.72606,.46004-.54055,.75905-.48299,1.06951,.09202,.10353,.19548,.23002,.39097,.33355,.57501,1.50653,2.66799,1.4835,2.6795-.37953,5.04854Z"/></svg>