<?xml version="1.0" encoding="UTF-8"?><svg id="Layer_1" xmlns="http://www.w3.org/2000/svg" viewBox="0 0 41.5729 54.05273"><defs><style>.cls-1{fill:#d1d1d1;}.cls-2{fill:#1637d8;}.cls-3{fill:#1d1d1b;}</style></defs><g><g><path class="cls-1" d="M20.78645,52.92598c10.76175-5.58473,15.75632-16.20048,18.02017-25.96151l-18.14978-.00041,.12961,25.96192"/><path class="cls-2" d="M20.78645,52.92598C10.0247,47.34125,5.03013,36.7255,2.76628,26.96447l17.89056-.00042,.12961,25.96192Z"/><path class="cls-2" d="M20.78645,1.00214s10.30665,.62559,19.61433,4.62935c0,0,1.01094,10.10058-1.59416,21.33298l-18.14978-.00041,.12961-25.96192Z"/><path class="cls-1" d="M20.78645,1.00214l-.12961,25.96192-17.89056,.00042C.16118,15.73207,1.17212,5.63149,1.17212,5.63149,10.4798,1.62772,20.78645,1.00214,20.78645,1.00214"/></g><path class="cls-3" d="M20.78621,54.05273l-.46045-.23926C-3.15031,41.63086,.1407,5.89111,.17683,5.53174l.05859-.58643,.5415-.23242C10.13728,.68652,20.29744,.02979,20.72566,.00391l.06055-.00391,.06055,.00391c.42822,.02588,10.58936,.68262,19.94971,4.70898l.54102,.23242,.05859,.58643c.03613,.35938,3.32715,36.09912-20.14941,48.28174l-.46045,.23926ZM2.12166,6.31592c-.30957,4.57178-1.51709,34.54639,18.66455,45.47803C40.96834,40.8623,39.76033,10.8877,39.45174,6.31592,30.93221,2.79102,21.62703,2.06348,20.78621,2.00439c-.84082,.05908-10.14502,.78662-18.66455,4.31152Z"/></g><path d="M33.11857,19.9755c-.44696-1.40233-1.48124-2.24377-2.72581-2.86608-2.07723-1.0605-4.33854-1.38479-6.62612-1.56009-.50837-.03509-.97287-.05259-1.41988-.39442-1.05178-.80634-2.30512-1.03423-3.58474-1.1394-4.0318-.33306-6.45964,1.95451-8.33525,5.12734-2.14737,3.65487-2.00715,5.93373,.55218,9.32567,1.36729,1.80553,3.08514,3.25173,4.80305,4.69787,1.20076,.99919,2.42784,2.01587,2.73459,3.68996,.07891,.41192,.35933,.54341,.73626,.54341h1.52505c2.4103,.00877,2.76963-.28048,3.31303-2.64696,.37688-1.63022,.37688-3.26922,.11395-4.91699-.15776-.99919-.38565-1.99838-.33306-3.02384,.0964-1.90193,.97287-3.59351,2.64696-4.17201,1.88444-.64858,3.89154-1.0605,5.84605-1.52505,.85898-.20157,.98164-.42946,.75375-1.1394Zm-13.36619-1.42865c-.49082-.03504-.77125-.35933-.70117-.85892,.07013-.42074,.37688-.6749,.81511-.61354,.42952,.05259,.65735,.35061,.66613,.79757-.0964,.41197-.33306,.70122-.78007,.6749Zm3.20792,3.05888c-.29802-.00877-.6749-.07013-.6749-.42069,0-.41197,.43824-.31552,.70117-.35938,2.20873-.43824,4.43494-.55213,6.68748-.08763-2.18241,.76253-4.43494,.95538-6.71375,.8677Zm4.36481-2.19118c-1.43743-.07013-2.85731,.14027-4.62774,.37688,1.05172-.89396,2.0071-1.15695,3.02378-1.20076,.61354-.02627,.96415-.21912,.93783-.89396-.01749-.3068-.08763-.7713,.46456-.63986,1.80553,.41197,3.57602,.92028,4.85563,2.75213-1.72662-.14899-3.19037-.31552-4.65406-.39442Z"/></svg>