<?xml version="1.0" encoding="UTF-8"?><svg id="Layer_1" xmlns="http://www.w3.org/2000/svg" viewBox="0 0 41.5729 54.05273"><defs><style>.cls-1{fill:#dbdbdb;}.cls-2{fill:#040404;}.cls-3{fill:#00843f;}</style></defs><g><g><path class="cls-1" d="M20.78645,52.92598c10.76175-5.58473,15.75632-16.20048,18.02017-25.96151l-18.14978-.00041,.12961,25.96192"/><path class="cls-3" d="M20.78645,52.92598C10.0247,47.34125,5.03013,36.7255,2.76628,26.96447l17.89056-.00042,.12961,25.96192Z"/><path class="cls-3" d="M20.78645,1.00214s10.30665,.62559,19.61433,4.62935c0,0,1.01094,10.10058-1.59416,21.33298l-18.14978-.00041,.12961-25.96192Z"/><path class="cls-1" d="M20.78645,1.00214l-.12961,25.96192-17.89056,.00042C.16118,15.73207,1.17212,5.63149,1.17212,5.63149,10.4798,1.62772,20.78645,1.00214,20.78645,1.00214"/></g><path d="M20.78621,54.05273l-.46045-.23926C-3.15031,41.63086,.1407,5.89111,.17683,5.53174l.05859-.58643,.5415-.23242C10.13728,.68652,20.29744,.02979,20.72566,.00391l.06055-.00391,.06055,.00391c.42822,.02588,10.58936,.68262,19.94971,4.70898l.54102,.23242,.05859,.58643c.03613,.35938,3.32715,36.09912-20.14941,48.28174l-.46045,.23926ZM2.12166,6.31592c-.30957,4.57178-1.51709,34.54639,18.66455,45.47803C40.96834,40.8623,39.76033,10.8877,39.45174,6.31592,30.93221,2.79102,21.62703,2.06348,20.78621,2.00439c-.84082,.05908-10.14502,.78662-18.66455,4.31152Z"/></g><g><path d="M13.30557,46.69968c4.58665,1.69149,6.87998-.87845,8.02664-3.87127,1.40448-3.66571,.99946-7.7793-.79335-11.27156-.633-1.23304-1.29447-2.35983-1.78161-3.02739-.75044-1.03323-1.39821-2.59343-1.98556-3.74627-1.02234-2.01208,.29367-4.04588,2.54499-3.99151,1.1093,.02177,1.50088,.47854,1.27246,1.58791-.19576,.97886-.04348,1.8924,.50032,2.68639,1.37038,1.99025,3.18664,3.40417,5.55758,3.94796,2.1317,.50025,4.0241-.82658,4.38296-2.95828,.04355-.26101,0-.55468,.17405-.79392v-2.91474c-.22842-.34804-.11962-.75044-.14139-1.12025-.14139-1.90329-1.02234-3.19752-2.88214-3.77391-.65253-.20665-1.09841-.70696-1.57696-1.16373-.87013-.81569-1.84892-1.3486-3.05613-1.52266-2.02297-.29367-4.03499-.35892-6.05789-.09785-3.26278,.4024-5.82954,2.13164-6.75397,5.22043-1.05493,3.5129-.95709,7.1346,1.70753,10.19073,1.15284,1.31594,2.96706,2.6358,3.45649,4.34332,0,0,2.44285,9.56486-7.22604,5.52193m17.23394-13.94372c-.47854,.35892-.97886,.10873-1.3486-.32626-.46766-.29367-.71785-.73955-.83747-1.25076-.07614-.31538-.04348-.63082,.29367-.81569,.30449-.16317,.60905-.08703,.88095,.05437,.35886,.20665,.09785,.48943,.06525,.73955-.06525,.33715-.13051,.6743-.18494,1.01145,.67437,.26108,.67437-.55462,1.12025-.70689,.26101,.44588,.46766,.9462,.01089,1.29424Zm4.38296-2.34924c-.09785,.29367-.28278,.59823-.6743,.53298-.34804-.05443-.51114-.36981-.52202-.68519-.02177-.57646,.45677-.20665,.6743-.31544,.08703-.05437,.18487-.06525,.28278-.10873-.1088-.42418-.44595-.5112-.7831-.60905-.2936-.08703-.36974-.28278-.31538-.55468,.04348-.25012,.10873-.48943,.36981-.57646,.2719-.09785,.47854,.06532,.64164,.25019,.5112,.61994,.55468,1.33772,.32626,2.06638Z"/><path class="cls-2" d="M27.66198,35.49237c-.25642-.33561-.23206-.60604,.12758-.87572,.44718-.33534,.78861-.7635,.94343-1.39347-.67474,.0656-1.28248,.13764-1.89229,.17849-.30348,.02032-.57923-.09909-.55259-.45693,.02121-.28493,.26631-.3722,.53454-.37499,.20815-.00216,.41774-.00213,.62401-.02617,1.42068-.16559,1.80346-.68451,1.62199-2.07392-.06272-.48019-.57605-1.269,.27826-1.3563,.65698-.06714,.44193,.81752,.50687,1.249,.30052,1.99655-.07707,3.80419-1.77462,5.13002h-.41718Z"/></g></svg>