<?xml version="1.0" encoding="utf-8"?>
<!-- Generator: Adobe Illustrator 26.5.0, SVG Export Plug-In . SVG Version: 6.00 Build 0)  -->
<svg version="1.1" id="Layer_1" xmlns="http://www.w3.org/2000/svg" xmlns:xlink="http://www.w3.org/1999/xlink" x="0px" y="0px"
	 viewBox="0 0 35.3 35.3" style="enable-background:new 0 0 35.3 35.3;" xml:space="preserve">
<g>
	<path d="M21.9,19l11.4,12.6c0.2,0.3,0.2,0.7,0,0.9l-0.9,0.9c-0.2,0.2-0.6,0.3-0.9,0L18.7,22c-0.3-0.2-0.6-0.2-0.9,0L4.9,34.3
		c-0.3,0.2-0.7,0.2-0.9,0l-1.8-1.8c-0.3-0.2-0.3-0.7,0-0.9L14,18.6c0.2-0.3,0.2-0.7,0-0.9L0.9,6c-0.3-0.3-0.3-0.7,0-1l3.9-3.9
		c0.3-0.3,0.7-0.3,1,0l11.6,12.8c0.3,0.3,0.7,0.3,1,0L30,1.1c0.3-0.3,0.7-0.3,1,0L34.8,5C35,5.3,35,5.7,34.8,6L22,18.1
		C21.7,18.4,21.7,18.8,21.9,19z"/>
</g>
</svg>
